<?xml version="1.0" ?><!DOCTYPE svg  PUBLIC '-//W3C//DTD SVG 1.1//EN'  'http://www.w3.org/Graphics/SVG/1.1/DTD/svg11.dtd'><svg enable-background="new 0 0 256 256" height="256px" id="Layer_1" version="1.1" viewBox="0 0 256 256" width="256px" xml:space="preserve" xmlns="http://www.w3.org/2000/svg" xmlns:xlink="http://www.w3.org/1999/xlink"><path d="M183.548,171.9l16.052-22.233c1.206-1.672,0.829-4.008-0.844-5.214c-1.674-1.206-4.006-0.83-5.215,0.843  l-16.082,22.276c-0.207,0.29-0.353,0.604-0.47,0.925c-14.802-7.064-31.592-11.071-49.403-11.071  c-17.498,0-34.003,3.874-48.614,10.706c-0.092-0.191-0.196-0.382-0.326-0.563l-16.083-22.275c-1.205-1.671-3.537-2.047-5.212-0.842  c-1.673,1.207-2.05,3.542-0.843,5.213l15.778,21.854c-30.483,16.862-51.208,47.232-52.488,82.168h215.575  C234.103,219.008,213.664,188.835,183.548,171.9z" fill="#B6D152"/><path d="M75.452,182.55c-0.535,0-1.055-0.277-1.34-0.773c-0.423-0.74-0.168-1.683,0.571-2.107  c2.108-1.209,4.301-2.363,6.519-3.43c0.769-0.365,1.689-0.047,2.06,0.722c0.369,0.768,0.046,1.688-0.722,2.059  c-2.151,1.034-4.279,2.154-6.322,3.327C75.976,182.485,75.711,182.55,75.452,182.55z" fill="#F1F2F2"/><path d="M39.983,218.339c-0.249,0-0.501-0.061-0.735-0.188c-0.749-0.408-1.025-1.346-0.617-2.094  c6.965-12.793,17.292-24.043,29.861-32.529c0.705-0.479,1.666-0.29,2.142,0.414c0.477,0.706,0.291,1.665-0.415,2.142  c-12.162,8.213-22.148,19.088-28.878,31.45C41.06,218.048,40.53,218.339,39.983,218.339z" fill="#F1F2F2"/><g><path d="M162.134,205.372c0,20.41-10.769,38.297-26.926,48.314h100.165c-1.271-34.679-21.709-64.852-51.825-81.786   l16.052-22.233c1.206-1.672,0.829-4.008-0.844-5.214c-1.674-1.206-4.006-0.83-5.215,0.843l-16.082,22.276   c-0.207,0.29-0.353,0.604-0.47,0.925c-12.364-5.898-26.114-9.657-40.688-10.738C151.848,167.896,162.134,185.429,162.134,205.372z" fill="#9FB543"/></g><path d="M235.373,256H19.798c-0.628,0-1.23-0.255-1.667-0.708c-0.436-0.453-0.669-1.063-0.646-1.691  c1.245-33.957,20.407-64.734,51.415-82.819L54.633,151.02c-0.945-1.31-1.324-2.909-1.066-4.504s1.122-2.995,2.433-3.94  c1.041-0.748,2.262-1.143,3.537-1.143c1.939,0,3.773,0.938,4.906,2.508l15.354,21.27c14.987-6.701,31.054-10.098,47.79-10.098  c17.023,0,33.329,3.502,48.499,10.411l15.58-21.583c1.136-1.57,2.97-2.508,4.907-2.508c1.275,0,2.498,0.396,3.536,1.143  c2.706,1.953,3.319,5.74,1.368,8.445l-14.553,20.156c30.609,18.139,49.528,48.77,50.762,82.424c0.023,0.629-0.209,1.238-0.646,1.691  C236.604,255.745,236.002,256,235.373,256z M22.23,251.372h210.711c-2.016-31.895-20.764-60.717-50.527-77.455  c-0.575-0.323-0.983-0.875-1.125-1.52c-0.143-0.644-0.003-1.317,0.383-1.852l16.052-22.233c0.458-0.635,0.313-1.524-0.321-1.983  c-0.309-0.221-0.621-0.27-0.83-0.27c-0.463,0-0.885,0.217-1.155,0.591l-16.082,22.275c-0.052,0.073-0.11,0.195-0.172,0.364  c-0.224,0.613-0.694,1.104-1.299,1.35s-1.284,0.227-1.872-0.054c-15.078-7.196-31.364-10.846-48.406-10.846  c-16.727,0-32.753,3.528-47.634,10.488c-1.147,0.535-2.519,0.048-3.067-1.099c-0.033-0.068-0.067-0.14-0.114-0.205l-16.083-22.276  c-0.27-0.374-0.689-0.589-1.152-0.589c-0.208,0-0.522,0.049-0.833,0.271c-0.305,0.22-0.508,0.549-0.568,0.923  c-0.061,0.374,0.027,0.75,0.25,1.057l15.777,21.854c0.387,0.536,0.527,1.213,0.382,1.859c-0.145,0.646-0.558,1.199-1.138,1.519  C43.248,190.226,24.258,219.187,22.23,251.372z" fill="#594A42"/><circle cx="88.041" cy="203.364" fill="#594A42" r="10.276"/><circle cx="165.29" cy="203.364" fill="#594A42" r="10.276"/><path d="M127.573,238.063c-1.393,0-2.79-0.232-4.145-0.704c-3.177-1.104-5.732-3.38-7.196-6.408  c-0.283-0.579-0.528-1.207-0.727-1.861c-0.372-1.222,0.317-2.515,1.54-2.887c1.223-0.374,2.516,0.317,2.887,1.54  c0.128,0.42,0.283,0.819,0.462,1.186c0.93,1.922,2.545,3.361,4.554,4.061c2.008,0.699,4.168,0.573,6.083-0.354  c2.045-0.989,3.574-2.811,4.195-4.996c0.35-1.23,1.636-1.946,2.859-1.594c1.229,0.35,1.941,1.631,1.593,2.859  c-0.983,3.455-3.4,6.333-6.633,7.896C131.311,237.641,129.446,238.063,127.573,238.063z" fill="#594A42"/></svg>